<svg id="Layer_1" data-name="Layer 1" xmlns="http://www.w3.org/2000/svg" viewBox="0 0 1551.41 1301.34">
	<defs>
		<style>.cls-1{fill:#50b585;}.cls-2{fill:#f49037;}.cls-3{fill:#2c4144;}.cls-4{fill:#ffdd0c;}.cls-5{fill:#e41f29;}.cls-6{font-size:252.31px;fill:#fff;font-family:CooperBlack, Cooper Black;}.cls-7{letter-spacing:-0.01em;}.cls-8{letter-spacing:0em;}.cls-9{letter-spacing:-0.01em;}.cls-10{letter-spacing:-0.05em;}</style>
	</defs>
	<title>LetsTalk_CAT_fondo_blanco</title>
	<path class="cls-1" d="M2929.64,584.53C2750,467,2591,634.4,2530.63,767.7S2397.06,978.15,2178,1067.44c-152.15,62-220.09,238.06-151.34,369.68s250.54,304.31,572.49,225.3c307.14-75.37,484.51-361.43,517.09-612C3141.28,857.64,3071.29,677.25,2929.64,584.53Z" transform="translate(-1680.14 -381)"/>
	<path class="cls-2" d="M2661.41,1356.29c-11.24-107.12-102-154.76-184.8-180.23s-162.21-68.08-252-245.76S1987,747.33,1877,830.86c-46,34.93-78.79,107.95-71.54,174.55,5.18,47.61,6,98.11-22.46,156.55s-131.46,100-95.27,212.47c28.67,89.09,171.22,168.38,309.73,75.27s207.27-56.8,263.89-3.75c57.24,53.62,140.9,123,241.89,110.85C2589.94,1546.37,2672.66,1463.41,2661.41,1356.29Z" transform="translate(-1680.14 -381)"/>
	<path class="cls-3" d="M1999.06,1505.28c100.15,76.5,246.78,53.65,420.2-52.78,94.34-57.9,213-56.39,329-14.6,159.64,57.5,319.35,50.93,413.12-75.28s149.44-387.3-209.2-504.28c-130.39-42.53-262.31-161.21-333.1-302.16-75.09-149.49-176.9-181.43-284.83-174.24C2271,386.15,2118,433.64,2082,582.18c-41.81,172.44,68.8,304.73-58,503.55C1903.43,1274.68,1882.62,1416.33,1999.06,1505.28Z" transform="translate(-1680.14 -381)"/>
	<rect class="cls-3" x="1159.3" y="654.32" width="311.95" height="311.95"/>
	<rect class="cls-4" x="1159.35" y="653.91" width="311.85" height="311.85"/>
	<rect class="cls-5" x="1159.35" y="688.56" width="311.85" height="34.65"/>
	<rect class="cls-5" x="1159.35" y="758.09" width="311.85" height="34.65"/>
	<rect class="cls-5" x="1159.35" y="827.85" width="311.85" height="34.65"/>
	<rect class="cls-5" x="1159.35" y="897.39" width="311.85" height="34.65"/>
	<path class="cls-3" d="M2997.49,934.28c-119.51,0-216.38,111.45-216.38,248.93s96.87,248.94,216.38,248.94,216.38-111.45,216.38-248.94S3117,934.28,2997.49,934.28Zm-2.07,412.94a155.93,155.93,0,1,1,155.92-155.92A155.92,155.92,0,0,1,2995.42,1347.22Z" transform="translate(-1680.14 -381)"/>
	<text class="cls-6" transform="translate(499.83 603.61)">L<tspan class="cls-7" x="159.66" y="0">e</tspan>
		<tspan class="cls-8" x="291.85" y="0">t</tspan>
		<tspan class="cls-9" x="408.03" y="0">’</tspan>
		<tspan x="481.33" y="0">s</tspan>
		<tspan class="cls-10" x="0" y="215.45">T</tspan>
		<tspan x="163.73" y="215.45">alk</tspan>
	</text>
</svg>