<svg id="Layer_1" data-name="Layer 1" xmlns="http://www.w3.org/2000/svg" viewBox="0 0 1556.86 1305.91">
	<defs>
		<style>.cls-1{fill:#3caea3;}.cls-2{fill:#ed553b;}.cls-3{fill:#173f5f;}.cls-4{font-size:253.19px;fill:#fff;font-family:CooperBlack, Cooper Black;}.cls-5{letter-spacing:-0.01em;}.cls-6{letter-spacing:0em;}.cls-7{letter-spacing:-0.01em;}.cls-8{letter-spacing:-0.05em;}.cls-9{fill:#ff1500;}.cls-10{fill:#ffd629;}</style>
	</defs>
	<title>LetsTalk_ESP</title>
	<path class="cls-1" d="M2925.38,588.23c-180.24-118-339.88,50-400.41,183.81s-134,211.19-353.91,300.8c-152.68,62.22-220.86,238.89-151.87,371s251.42,305.38,574.5,226.09c308.22-75.64,486.21-362.7,518.91-614.11C3137.76,862.3,3067.53,681.28,2925.38,588.23Z" transform="translate(-1671.5 -383.99)"/>
	<path class="cls-2" d="M2656.21,1362.7c-11.28-107.5-102.35-155.3-185.45-180.86S2308,1113.52,2217.89,935.22s-238.5-183.62-348.81-99.79c-46.14,35.05-79.07,108.33-71.79,175.16,5.2,47.77,6,98.45-22.54,157.1s-131.93,100.34-95.61,213.22c28.77,89.4,171.82,169,310.82,75.53s208-57,264.82-3.76c57.44,53.81,141.39,123.43,242.74,111.24C2584.48,1553.45,2667.5,1470.19,2656.21,1362.7Z" transform="translate(-1671.5 -383.99)"/>
	<path class="cls-3" d="M1991.53,1512.22c100.5,76.76,247.65,53.84,421.68-53,94.67-58.1,213.74-56.58,330.14-14.65,160.19,57.71,320.47,51.1,414.56-75.55s150-388.65-209.93-506c-130.85-42.68-263.24-161.77-334.27-303.21-75.35-150-177.52-182.07-285.83-174.86-63.41,4.22-217,51.89-253.16,201-42,173,69,305.8-58.22,505.31C1895.57,1280.8,1874.69,1423,1991.53,1512.22Z" transform="translate(-1671.5 -383.99)"/>
	<text class="cls-4" transform="translate(501.58 605.73)">L<tspan class="cls-5" x="160.22" y="0">e</tspan>
		<tspan class="cls-6" x="292.88" y="0">t</tspan>
		<tspan class="cls-7" x="409.46" y="0">’</tspan>
		<tspan x="483.02" y="0">s</tspan>
		<tspan class="cls-8" x="0" y="216.21">T</tspan>
		<tspan x="164.3" y="216.21">alk</tspan>
	</text>
	<path class="cls-9" d="M2990.73,1038.58A156.21,156.21,0,0,0,2853.57,1120h274.31A156.19,156.19,0,0,0,2990.73,1038.58Z" transform="translate(-1671.5 -383.99)"/>
	<path class="cls-9" d="M2990.73,1351a156.18,156.18,0,0,0,137.15-81.36H2853.57A156.2,156.2,0,0,0,2990.73,1351Z" transform="translate(-1671.5 -383.99)"/>
	<path class="cls-10" d="M2853.57,1269.68h274.31a156.42,156.42,0,0,0,0-149.73H2853.57a156.42,156.42,0,0,0,0,149.73Z" transform="translate(-1671.5 -383.99)"/>
</svg>