<svg version="1.1" id="Layer_1" xmlns="http://www.w3.org/2000/svg" x="0" y="0" viewBox="0 0 954 360" style="enable-background:new 0 0 954 360" xml:space="preserve"><style>.st1,.st2{fill-rule:evenodd;clip-rule:evenodd;fill:#042d56}.st2{fill:#fbfafc}</style><path d="M370.5 254.9c0 27.6-22.5 50-50.3 50h-270c-27.8 0-50.3-22.4-50.3-50V105c0-27.6 22.5-50 50.3-50h270c27.8 0 50.3 22.4 50.3 50v149.9z" style="fill-rule:evenodd;clip-rule:evenodd;fill:#0b2fac"/><path class="st1" d="M483 97.9c4.9 1 9 2.3 12.1 3.7.7.4.9.8.8 1.2l-4.5 17.5c-.3.8-.9 1-1.8.6-2.3-1.1-5.2-2-8.5-2.9-3.4-.9-7.7-1.3-12.8-1.3-5.2 0-9.8.8-13.9 2.3-4.1 1.5-7.6 3.7-10.5 6.5-2.9 2.8-5 6.1-6.5 9.9-1.5 3.8-2.2 7.9-2.2 12.3 0 5 .8 9.4 2.5 13.2 1.7 3.8 4 7.1 7 9.8 3 2.7 6.5 4.7 10.5 6.1 4 1.4 8.3 2.1 12.9 2.1 5 0 9.4-.5 13-1.5 3.7-1 6.8-2 9.6-3.1.8-.3 1.4.1 1.6 1l3.5 17.1c.3.5.1.9-.6 1.2-2.7 1.3-6.8 2.7-12.4 4-5.6 1.3-12 2-19.3 2-8.4 0-16-1.2-22.7-3.7-6.7-2.5-12.4-5.9-17.2-10.4-4.7-4.4-8.4-9.7-11-15.9-2.6-6.2-3.9-13-3.9-20.5 0-7.4 1.3-14.3 4-20.8 2.6-6.4 6.5-12.1 11.5-16.8 5-4.8 11.2-8.5 18.5-11.2 7.3-2.7 15.6-4 24.8-4 5.3.1 10.5.6 15.5 1.6zM563 200.5c0 .7-.4 1-1.2 1-3 0-6-.2-9.2-.7-3.2-.5-6.3-1.2-9.4-2.1-3.1-.9-6.1-2.2-9-3.7-2.9-1.5-5.4-3.5-7.6-5.7-4.7-4.7-8-10.6-9.9-17.7-1.9-7.1-2.8-15.6-2.8-25.4V56.6c0-.8.4-1.2 1.2-1.2h23.7c.8 0 1.2.4 1.2 1.2v81.6c0 5.6.1 10.4.4 14.4.3 4 .6 7.3 1.1 10 .5 2.7 1.1 4.9 1.9 6.5.8 1.7 1.8 3.1 3 4.3 2.2 2.2 4.9 3.8 8.1 4.8 3.2 1.1 6.5 1.8 9.7 2 .8 0 1.2.5 1.2 1.4l-2.4 18.9zM639.3 150.2c-5 0-9.7.3-14.2.8s-8.4 1.5-11.8 2.8c-3.4 1.4-6.1 3.2-8.1 5.5s-3 5.1-3 8.5c0 4.3 1.3 7.6 4 9.8 2.7 2.2 6.2 3.3 10.5 3.3 5.6 0 10.4-1.5 14.1-4.4 3.8-3 6.3-6.1 7.7-9.5.5-1.6.8-3.3.8-5.1v-11.7zm6 49.5c-.7 0-1.1-.3-1.4-1l-3.4-12.5-1.2 1.2c-1.9 1.5-4.3 3.3-7.2 5.6-2.9 2.2-5.8 3.8-8.8 4.8-4.2 1.4-8.1 2-11.9 2-1.9 0-3.8-.1-5.9-.4-2-.3-4.2-.6-6.5-1-3.8-.7-7.1-2-9.9-3.8-2.8-1.9-5.2-4.1-7.2-6.7-2-2.6-3.4-5.4-4.4-8.4-1-3-1.5-6-1.5-9 0-12.4 5.3-21.8 15.8-28.2 10.6-6.4 26.1-9.6 46.7-9.6v-.2c0-1.2-.2-2.8-.6-4.9-.4-2-1.3-3.9-2.7-5.8-1.4-1.8-3.5-3.4-6.4-4.7-2.8-1.3-6.7-1.9-11.5-1.9-1.5 0-3.1.1-4.7.3-1.7.2-3.3.4-4.9.7-.9.3-1.4-.1-1.4-1-.1-.9-.4-2.8-.9-5.5s-.9-5.1-1.2-7.1c-.3-2-.5-3.2-.5-3.4 0-.7.3-1.1 1-1.4 2.4-.4 5-.7 7.8-1 2.8-.3 5.7-.4 8.8-.4 8.5 0 15.5 1.3 21 3.7 5.5 2.5 9.9 5.7 13.2 9.7 3.3 4 5.6 8.5 6.9 13.7 1.3 5.1 1.9 10.3 1.9 15.6v33.8c0 4.3.3 8.6.8 12.7.5 4.2 1.1 7.8 1.8 10.7.3.9-.1 1.4-1 1.4l-20.6 2zM757 180.7c-1.8 3.8-4.5 7.2-8 10-3.6 2.8-8.1 5-13.5 6.6-5.4 1.6-11.7 2.4-18.9 2.4-6.6 0-12.7-.7-18.3-2.1-5.6-1.4-10.4-3.2-14.5-5.3-.7-.3-.9-.7-.6-1.2l5.2-17.3c.3-.9.9-1.1 1.9-.6 2.9 1.9 6.8 3.6 11.9 5.1 5 1.5 9.9 2.3 14.7 2.3 6.1 0 10.4-1 13-2.9 2.6-1.9 3.9-4.5 3.9-7.6 0-3.2-1.4-5.8-4.1-7.8-2.8-1.9-7.2-3.9-13.4-5.7-10.3-3.1-17.9-7.2-22.7-12.2-4.8-5-7.2-10.6-7.2-16.8 0-4.3.9-8.4 2.8-12.2 1.9-3.8 4.5-7.2 7.8-10 3.4-2.8 7.5-5 12.5-6.6 4.9-1.6 10.6-2.4 16.9-2.4 5.9 0 11.3.6 16.3 1.8 5 1.2 9 2.7 12.2 4.4.7.4.9.9.6 1.4l-4.7 16.5c-.3.8-.9.9-1.9.4-2.2-1.1-5.3-2.3-9.3-3.7-4-1.4-8.4-2.1-13.2-2.1-4.7 0-8.2.9-10.6 2.8-2.4 1.9-3.6 4.2-3.6 7 0 3.2 1.5 5.7 4.5 7.5 3 1.8 7.7 3.6 14 5.6 9.8 3.1 17 7 21.9 11.7 4.8 4.7 7.2 10.9 7.2 18.5-.2 4.5-1.1 8.7-2.8 12.5zM809.9 116.6c-3 1.4-5.6 3.2-7.6 5.3-2 2.1-3.6 4.5-4.7 7.2-1.1 2.6-1.8 5.1-2.2 7.6h48.2c-.1-1.7-.5-3.9-1.2-6.4-.7-2.5-1.9-5-3.5-7.4-1.7-2.3-4-4.3-6.9-5.9-2.9-1.6-6.7-2.4-11.2-2.4-4.2-.1-7.8.6-10.9 2zm58.2 33.9c-.1 1.7-.3 3-.6 3.9-.3.7-.7 1-1.2 1h-71.1c.5 3.6 1.8 6.9 3.8 9.9 2 3 4.5 5.5 7.4 7.6 2.9 2.1 6.2 3.7 9.8 4.9 3.6 1.2 7.4 1.8 11.3 1.8 4.3 0 8.3-.2 12-.6.9 0 1.4.3 1.4.8l2.6 17.1c0 .7-.3 1.1-1 1.4-2.8.7-5.8 1.1-8.8 1.2-3 .1-6.1.2-9.2.2-8.5 0-16.1-1.2-22.9-3.6-6.7-2.4-12.5-5.8-17.1-10.2-4.7-4.4-8.2-9.6-10.6-15.8-2.4-6.2-3.6-13-3.6-20.5 0-6.6 1.1-13.1 3.2-19.4 2.2-6.4 5.4-12.1 9.7-17.1 4.3-5 9.7-9.1 16.2-12.1s14-4.5 22.7-4.5c9.1 0 16.5 1.6 22.5 4.9 5.9 3.3 10.7 7.4 14.2 12.2 3.5 4.8 6 10.1 7.4 15.7 1.4 5.6 2.1 10.8 2.1 15.5 0 2.1 0 4-.2 5.7zM951.3 180.8c-1.8 3.9-4.5 7.2-8.1 10.1-3.6 2.8-8.1 5.1-13.5 6.7-5.4 1.6-11.8 2.4-18.9 2.4-6.6 0-12.7-.7-18.3-2.1-5.6-1.4-10.4-3.2-14.6-5.4-.7-.3-.9-.7-.6-1.2l5.2-17.5c.3-.9.9-1.1 1.9-.6 2.9 1.9 6.9 3.6 11.9 5.2s10 2.3 14.8 2.3c6.1 0 10.4-1 13-2.9 2.6-2 3.9-4.5 3.9-7.6 0-3.3-1.4-5.9-4.1-7.8-2.8-2-7.2-3.9-13.4-5.8-10.3-3.1-17.9-7.2-22.7-12.3-4.8-5.1-7.2-10.7-7.2-17 0-4.3.9-8.4 2.8-12.3 1.9-3.9 4.5-7.2 7.9-10.1 3.4-2.9 7.5-5.1 12.5-6.7 5-1.6 10.6-2.4 17-2.4 5.9 0 11.4.6 16.3 1.8 5 1.2 9 2.7 12.2 4.5.7.4.9.9.6 1.4l-4.8 16.7c-.3.8-.9 1-1.9.4-2.2-1.1-5.3-2.3-9.3-3.8-4-1.4-8.4-2.1-13.2-2.1-4.7 0-8.2 1-10.7 2.8-2.4 1.9-3.6 4.3-3.6 7.1 0 3.3 1.5 5.8 4.6 7.5 3 1.8 7.7 3.7 14.1 5.7 9.8 3.1 17.1 7 21.9 11.8 4.8 4.7 7.2 11 7.2 18.7-.2 4.5-1.1 8.6-2.9 12.5z"/><path class="st2" d="M202.5 254.5c-.8 0-1.4-.4-1.7-1.2 0-.2-.2-1-.5-2.4s-.7-3.1-1.1-4.9c-.4-1.8-.7-3.1-.8-3.9-.3-1.1-.5-2.8-.6-5-.1-2.2-.1-3.7-.1-4.5-1.4 2.4-3.3 4.8-5.5 7.3s-5 4.7-8.4 6.8c-3.4 2.1-7.2 3.8-11.6 5.1-4.4 1.3-9.5 2-15.2 2-5.3 0-10.6-.8-15.8-2.4-5.3-1.6-10.1-4.3-14.4-8.2-4.3-3.9-7.8-9.3-10.6-16.1-2.7-6.8-4.1-15.5-4.1-26v-65.6c0-1 .5-1.4 1.4-1.4h27.8c1 0 1.4.5 1.4 1.4V196c0 10 1.8 17.9 5.5 23.7 3.7 5.8 9.8 8.7 18.5 8.7 6.4 0 11.8-1.8 16.3-5.4 4.5-3.6 7.6-7.4 9.4-11.6h-.2c.5-1.3.9-2.6 1.2-4.1.3-1.4.5-3 .5-4.8v-67.3c0-1 .5-1.4 1.4-1.4h28.1c1 0 1.4.5 1.4 1.4v80.6c0 6.7.3 12.8 1 18.5.6 5.6 1.4 10.5 2.4 14.7.3.8-.1 1.3-1.2 1.7l-24.5 3.8zM339.3 231.9c-2.1 4.5-5.3 8.5-9.5 11.8-4.2 3.3-9.6 6-16 7.9-6.4 1.9-13.9 2.9-22.4 2.9-7.8 0-15.1-.8-21.7-2.5s-12.4-3.8-17.2-6.3c-.8-.3-1.1-.8-.7-1.4l6.1-20.6c.3-1.1 1.1-1.4 2.2-.7 3.4 2.2 8.1 4.3 14.1 6.1 6 1.8 11.8 2.7 17.5 2.7 7.2 0 12.3-1.2 15.4-3.5 3.1-2.3 4.6-5.3 4.6-9 0-3.8-1.6-6.9-4.9-9.2-3.3-2.3-8.6-4.6-15.9-6.8-12.2-3.7-21.2-8.5-26.9-14.5-5.7-6-8.6-12.6-8.6-20 0-5.1 1.1-9.9 3.3-14.5 2.2-4.5 5.3-8.5 9.3-11.8 4-3.3 8.9-6 14.8-7.9 5.9-1.9 12.6-2.9 20.1-2.9 7 0 13.5.7 19.3 2.1 5.9 1.4 10.7 3.2 14.4 5.3.8.5 1.1 1 .7 1.7l-5.6 19.6c-.3.9-1.1 1.1-2.2.5-2.6-1.3-6.3-2.7-11-4.4-4.7-1.7-9.9-2.5-15.7-2.5-5.5 0-9.7 1.1-12.6 3.4-2.9 2.2-4.3 5-4.3 8.4 0 3.8 1.8 6.8 5.4 8.8 3.6 2.1 9.1 4.3 16.6 6.7 11.6 3.7 20.2 8.3 25.9 13.9 5.7 5.6 8.6 12.9 8.6 22 .1 5.3-1 10.2-3.1 14.7zM82.2 271.4c-24.1-8.9-45.7-23-45.7-55.6v-58.6H19V131h17.5v-30.9H71V131h22.3v26.2H71v62c0 14.6 6.6 19.8 24.1 24.7l-12.9 27.5z"/><path class="st1" d="M431.6 244.4c-1.3.4-2.6 1.1-3.7 2-1.1.9-2.1 1.9-2.8 3.1-.8 1.2-1.4 2.6-1.8 4-.3 1.1-.5 2.2-.5 3v6.1c0 1 .1 2 .3 3 .3 1.2.8 2.4 1.5 3.5s1.7 2.2 2.7 3c1 .9 2.2 1.6 3.6 2.1 1.3.5 2.8.8 4.4.8 4.2 0 7.6-1.4 10.1-4.3s3.7-6.8 3.7-11.9c0-2-.3-4-.9-5.8-.6-1.9-1.5-3.5-2.6-4.9-1.1-1.4-2.5-2.5-4.2-3.3-1.7-.8-3.6-1.2-5.7-1.2-1.4.1-2.7.3-4.1.8zm28.1 25.7c-1.4 3.4-3.2 6.2-5.4 8.4-2.3 2.2-4.8 3.9-7.6 5.1-2.8 1.1-5.8 1.7-8.8 1.7-3.1 0-5.9-.6-8.6-1.7-2.7-1.1-4.9-2.7-6.6-4.7-.1 1.2-.3 3-.6 5.4-.3 2.4-.6 4.8-.8 7.3-.3 2.5-.5 4.8-.7 6.9-.2 2.1-.3 3.6-.3 4.3 0 1-.5 1.6-1.4 1.9-.9.2-1.8.3-2.5.2-.8-.1-1.2-.2-1.4-.3-.9-.1-1.8-.2-2.8-.3l-2.7-.3c-.5 0-.7-.2-.6-.7.3-2.2.6-3.9.7-5.3.2-1.4.3-2.8.5-4.1.2-1.4.2-2.3.2-2.9V277.1c0-3 0-6-.1-9v-16.7c0-3 0-5.7-.1-8.1-.1-2.4-.2-4.8-.3-7.1 0-.4.2-.6.5-.6l10.2-1.9c.4-.1.6.1.6.5l.7 7.6c2-2.5 4.5-4.5 7.5-6s6.4-2.3 10.3-2.3c2.9 0 5.7.6 8.4 1.7s5 2.8 7 5 3.6 4.8 4.8 7.9c1.2 3.1 1.8 6.5 1.8 10.4.2 4.3-.5 8.2-1.9 11.6zM501.9 261.4c-2.4 0-4.8.1-7 .4-2.2.3-4.1.7-5.8 1.4-1.6.6-3 1.5-4 2.6s-1.5 2.5-1.5 4.1c0 2.1.7 3.7 2 4.7 1.3 1.1 3 1.6 5.1 1.6 2.8 0 5.1-.7 6.9-2.1 1.8-1.4 3.1-3 3.8-4.6.3-.8.4-1.6.4-2.4v-5.7zm3 23.9c-.3 0-.6-.2-.7-.5l-1.7-6.1-.6.6c-.9.7-2.1 1.6-3.5 2.7s-2.8 1.8-4.3 2.3c-2 .7-4 1-5.8 1-.9 0-1.9-.1-2.9-.2s-2-.3-3.2-.5c-1.8-.3-3.5-.9-4.8-1.9-1.4-.9-2.6-2-3.5-3.2-1-1.2-1.7-2.6-2.2-4.1-.5-1.5-.7-2.9-.7-4.3 0-6 2.6-10.5 7.8-13.6 5.2-3.1 12.8-4.6 22.9-4.6v-.1c0-.6-.1-1.4-.3-2.3-.2-1-.6-1.9-1.3-2.8-.7-.9-1.7-1.6-3.1-2.2-1.4-.6-3.3-.9-5.6-.9-.7 0-1.5 0-2.3.1l-2.4.3c-.5.1-.7 0-.7-.5-.1-.5-.2-1.3-.4-2.6s-.4-2.4-.6-3.4c-.2-1-.2-1.5-.2-1.7 0-.3.2-.6.5-.7 1.2-.2 2.5-.4 3.8-.5 1.4-.1 2.8-.2 4.3-.2 4.2 0 7.6.6 10.3 1.8 2.7 1.2 4.9 2.8 6.5 4.7 1.6 1.9 2.7 4.1 3.4 6.6.6 2.5.9 5 .9 7.5v16.3c0 2.1.1 4.1.4 6.2.3 2 .6 3.7.9 5.2.1.5 0 .7-.5.7l-10.4.9zM554 245.7c-1.1-.2-2.3-.3-3.6-.3-2.9 0-5.3.9-7.2 2.7-1.9 1.8-3.1 4-3.8 6.7-.1.5-.2 1.1-.2 1.7v26.3c0 .4-.2.6-.6.6h-11.4c-.4 0-.6-.2-.6-.6v-31.7c0-3.4 0-6.3-.1-8.8-.1-2.5-.2-4.9-.3-7.1 0-.4.2-.6.6-.6h10c.4 0 .6.2.6.6l.5 7.2c1.5-3 3.5-5.2 6-6.7s5-2.2 7.5-2.2h1.6c.4 0 .9.1 1.4.2.3.1.4.2.4.5v10.9l-.8.6zM561.7 233.9c.1-.1.3-.2.4-.2h5.5v-8.6c0-.3.1-.5.4-.6l11.1-3.3c.5-.1.8.1.8.6v11.9h11.7c.4 0 .6.2.6.6l-.5 9c0 .4-.2.6-.6.6h-11.2v21.2c0 2.8.4 5 1.2 6.7.8 1.6 2.4 2.5 4.7 2.5 1.2 0 2.1-.1 2.8-.2.7-.1 1.4-.3 2.1-.6.5-.1.8.1.8.6l.3 9c0 .3-.1.5-.4.6-.9.4-2.2.8-3.7 1-1.6.3-3.4.4-5.3.4-2.4 0-4.5-.4-6.4-1.2-1.8-.8-3.3-1.9-4.4-3.2-1.4-1.6-2.4-3.6-3-6-.7-2.4-1-5.1-1-8.2V244h-7c-.1 0-.3 0-.4-.1-.1-.1-.2-.2-.2-.3v-8.1c0-.7 0-1.1.1-1.1l1.6-.5zM602.7 283.5c-.4 0-.6-.2-.6-.6v-48.7c0-.4.2-.6.6-.6h11c.4 0 .6.2.6.6v48.7c0 .4-.2.6-.6.6h-11zm10.7-58.8c-1.3 1.5-3 2.2-5.3 2.2-2.2 0-3.9-.7-5.2-2.2-1.2-1.5-1.9-3.2-1.9-5.1 0-2 .6-3.7 1.9-5.1 1.3-1.5 3-2.2 5.2-2.2s3.9.7 5.2 2.1c1.2 1.4 1.9 3.2 2 5.2 0 1.9-.6 3.6-1.9 5.1zM660.6 236.1c2.4.5 4.4 1.1 5.9 1.8.3.2.5.4.4.6l-2.2 8.5c-.1.4-.4.5-.9.3-1.1-.5-2.5-1-4.2-1.4-1.7-.4-3.8-.6-6.3-.6s-4.8.4-6.8 1.1c-2 .7-3.7 1.8-5.1 3.2-1.4 1.4-2.5 3-3.2 4.8-.7 1.8-1.1 3.8-1.1 5.9 0 2.4.4 4.5 1.2 6.4.8 1.8 2 3.4 3.4 4.7 1.5 1.3 3.2 2.3 5.1 3 2 .7 4.1 1 6.3 1 2.5 0 4.6-.2 6.4-.7 1.8-.5 3.4-1 4.7-1.5.4-.1.7 0 .8.5l1.7 8.3c.1.3 0 .5-.3.6-1.3.7-3.4 1.3-6.1 1.9-2.7.7-5.9 1-9.5 1-4.1 0-7.8-.6-11.1-1.8-3.3-1.2-6.1-2.9-8.4-5-2.3-2.1-4.1-4.7-5.4-7.7-1.3-3-1.9-6.3-1.9-9.9 0-3.6.6-6.9 1.9-10 1.3-3.1 3.2-5.8 5.6-8.1 2.5-2.3 5.5-4.1 9.1-5.4 3.6-1.3 7.6-1.9 12.2-1.9 2.9-.3 5.4-.1 7.8.4zM715.1 285.3c-.3 0-.6-.2-.7-.5 0-.1-.1-.4-.2-1s-.3-1.3-.4-2c-.2-.8-.3-1.3-.3-1.6-.1-.5-.2-1.2-.2-2.1v-1.9c-.6 1-1.4 2-2.3 3-.9 1-2.1 2-3.5 2.8-1.4.9-3 1.6-4.8 2.1-1.8.6-3.9.8-6.3.8-2.2 0-4.4-.3-6.6-1-2.2-.7-4.2-1.8-6-3.4-1.8-1.6-3.2-3.8-4.4-6.7-1.1-2.8-1.7-6.4-1.7-10.8v-27c0-.4.2-.6.6-.6h11.5c.4 0 .6.2.6.6v25.1c0 4.1.8 7.4 2.3 9.8 1.5 2.4 4.1 3.6 7.6 3.6 2.7 0 4.9-.7 6.8-2.2 1.8-1.5 3.1-3.1 3.9-4.8h-.1c.2-.5.4-1.1.5-1.7.1-.6.2-1.2.2-2V236c0-.4.2-.6.6-.6h11.6c.4 0 .6.2.6.6v33.4c0 2.8.1 5.3.4 7.7.3 2.3.6 4.4 1 6.1.1.3 0 .6-.5.7l-10.2 1.4zM762 284.8c0 .3-.2.5-.6.5-1.4 0-2.9-.1-4.5-.4-1.5-.2-3-.6-4.5-1.1-1.5-.5-3-1.1-4.4-1.9-1.4-.8-2.6-1.7-3.7-2.9-2.3-2.4-3.9-5.3-4.8-8.9-.9-3.6-1.4-7.8-1.4-12.7v-44.7c0-.4.2-.6.6-.6h11.4c.4 0 .6.2.6.6v40.8c0 2.8.1 5.2.2 7.2s.3 3.6.5 5c.2 1.3.5 2.4.9 3.3.4.8.9 1.6 1.5 2.2 1 1.1 2.3 1.9 3.9 2.4s3.1.9 4.7 1c.4 0 .6.2.6.7l-1 9.5zM796 261.4c-2.4 0-4.8.1-7 .4-2.2.3-4.1.7-5.8 1.4-1.7.6-3 1.5-4 2.6s-1.5 2.5-1.5 4.1c0 2.1.7 3.7 2 4.7 1.3 1.1 3 1.6 5.1 1.6 2.8 0 5.1-.7 6.9-2.1 1.8-1.4 3.1-3 3.8-4.6.3-.8.4-1.6.4-2.4v-5.7zm2.9 23.9c-.3 0-.6-.2-.7-.5l-1.7-6.1-.6.6c-.9.7-2.1 1.6-3.5 2.7s-2.9 1.8-4.3 2.3c-2 .7-4 1-5.8 1-.9 0-1.9-.1-2.9-.2s-2-.3-3.2-.5c-1.8-.3-3.5-.9-4.8-1.9-1.4-.9-2.6-2-3.5-3.2-1-1.2-1.7-2.6-2.2-4.1-.5-1.5-.7-2.9-.7-4.3 0-6 2.6-10.5 7.8-13.6 5.2-3.1 12.8-4.6 22.9-4.6v-.1c0-.6-.1-1.4-.3-2.3-.2-1-.6-1.9-1.3-2.8-.7-.9-1.7-1.6-3.1-2.2-1.4-.6-3.3-.9-5.6-.9-.7 0-1.5 0-2.3.1l-2.4.3c-.5.1-.7 0-.7-.5-.1-.5-.2-1.3-.4-2.6s-.4-2.4-.6-3.4c-.2-1-.2-1.5-.2-1.7 0-.3.2-.6.5-.7 1.2-.2 2.5-.4 3.8-.5 1.3-.1 2.8-.2 4.3-.2 4.1 0 7.6.6 10.3 1.8 2.7 1.2 4.9 2.8 6.5 4.7 1.6 1.9 2.7 4.1 3.4 6.6.6 2.5.9 5 .9 7.5v16.3c0 2.1.1 4.1.4 6.2.3 2 .6 3.7.9 5.2.1.5 0 .7-.5.7l-10.4.9zM851.6 245.7c-1.1-.2-2.3-.3-3.6-.3-2.9 0-5.3.9-7.2 2.7-1.9 1.8-3.1 4-3.8 6.7-.1.5-.2 1.1-.2 1.7 0 .6-.1 1.2-.1 1.6v24.7c0 .4-.2.6-.6.6h-11.4c-.4 0-.6-.2-.6-.6v-31.7c0-3.4 0-6.3-.1-8.8-.1-2.5-.2-4.9-.3-7.1 0-.4.2-.6.6-.6h10c.4 0 .6.2.6.6l.5 7.2c1.5-3 3.5-5.2 6-6.7s5-2.2 7.5-2.2h1.6c.4 0 .9.1 1.4.2.3.1.4.2.4.5v10.9l-.7.6zM875.3 245.2c-1.5.7-2.7 1.5-3.7 2.6-1 1-1.8 2.2-2.3 3.5-.5 1.3-.9 2.5-1.1 3.6h23.7c-.1-.8-.3-1.9-.6-3.1-.3-1.2-.9-2.4-1.7-3.6-.8-1.1-2-2.1-3.4-2.9-1.4-.8-3.3-1.2-5.5-1.2-2.1 0-3.9.4-5.4 1.1zm28.6 16.3c-.1.8-.2 1.4-.3 1.9-.1.3-.3.5-.6.5h-34.9c.3 1.8.9 3.3 1.9 4.8 1 1.4 2.2 2.6 3.6 3.6s3 1.8 4.8 2.4c1.8.6 3.6.9 5.6.9 2.1 0 4.1-.1 5.9-.3.5 0 .7.1.7.4l1.3 8.3c0 .3-.2.5-.5.7-1.4.3-2.8.5-4.3.6-1.5.1-3 .1-4.5.1-4.2 0-7.9-.6-11.2-1.8-3.3-1.2-6.1-2.8-8.4-4.9-2.3-2.1-4-4.6-5.2-7.6-1.2-3-1.8-6.3-1.8-9.9 0-3.2.5-6.3 1.6-9.4 1.1-3.1 2.7-5.8 4.8-8.3 2.1-2.4 4.8-4.4 7.9-5.8 3.2-1.5 6.9-2.2 11.1-2.2 4.4 0 8.1.8 11 2.4 2.9 1.6 5.2 3.5 7 5.9 1.7 2.3 2.9 4.9 3.6 7.6.7 2.7 1 5.2 1 7.5 0 .9-.1 1.8-.1 2.6zM949 276.1c-.9 1.8-2.2 3.5-3.9 4.8-1.8 1.4-3.9 2.4-6.6 3.2-2.7.8-5.7 1.2-9.2 1.2-3.2 0-6.2-.3-8.9-1s-5.1-1.5-7.1-2.6c-.3-.1-.4-.3-.3-.6l2.5-8.4c.1-.5.4-.5.9-.3 1.4.9 3.3 1.7 5.8 2.5 2.5.7 4.9 1.1 7.2 1.1 2.9 0 5.1-.5 6.3-1.4 1.3-.9 1.9-2.2 1.9-3.6 0-1.6-.7-2.8-2-3.7-1.3-.9-3.5-1.9-6.5-2.8-5-1.5-8.7-3.4-11.1-5.9-2.4-2.4-3.5-5.1-3.5-8.1 0-2.1.4-4 1.3-5.9.9-1.9 2.2-3.5 3.8-4.8 1.6-1.4 3.7-2.4 6.1-3.2 2.4-.8 5.2-1.2 8.3-1.2 2.9 0 5.5.3 8 .9 2.4.6 4.4 1.3 5.9 2.1.3.2.4.4.3.7l-2.3 8c-.1.4-.4.5-.9.2-1.1-.5-2.6-1.1-4.5-1.8s-4.1-1-6.4-1c-2.3 0-4 .5-5.2 1.4-1.2.9-1.8 2-1.8 3.4 0 1.6.7 2.8 2.2 3.6 1.5.8 3.8 1.7 6.8 2.7 4.8 1.5 8.3 3.4 10.7 5.6 2.4 2.3 3.5 5.2 3.5 8.9 0 2.1-.4 4.1-1.3 6z"/></svg>